/* XPM */
static char * alchimist_xpm[] = {
"32 32 13 1",
" 	c #BC4C51",
".	c #3D253B",
"+	c #25131A",
"@	c #121212",
"#	c #44504F",
"$	c #313B35",
"%	c #606E6D",
"&	c #000000",
"*	c #CDD5D0",
"=	c #362030",
"-	c #9A8571",
";	c #64594F",
">	c #E6A353",
"    ........++++++++++++....    ",
"    ........++++++++++++....    ",
"  ........++@@@@@@@@@@@@++....  ",
"  ........++@@@@@@@@@@@@++....  ",
"........++@@@@@@@@@@##@@++......",
"........++@@@@@@@@@@##@@++......",
"........@@@@##$$$$%%$$$$&&++....",
"........@@@@##$$$$%%$$$$&&++....",
"........@@##%%$$**%%$$**++......",
"........@@##%%$$**%%$$**++......",
"......  @@##%%####%%####++......",
"......  @@##%%####%%####++......",
"....@@@@  ++##%%%%%%%%%%++======",
"....@@@@  ++##%%%%%%%%%%++======",
"........++++++++**++++**++....==",
"........++++++++**++++**++....==",
"......++--;;------------;;++..==",
"......++--;;------------;;++..==",
"......++;;------++>>++--;;++....",
"......++;;------++>>++--;;++....",
"......++++++++++++++++++++++....",
"......++++++++++++++++++++++....",
"........++;;;;;;;;++;;;;++......",
"........++;;;;;;;;++;;;;++......",
"........++--;;----++--;;++......",
"........++--;;----++--;;++......",
"......++--;;;;----++----;;++....",
"......++--;;;;----++----;;++....",
"  ..++--;;;;----++++++--;;++..  ",
"  ..++--;;;;----++++++--;;++..  ",
"    ........................    ",
"    ........................    "};
