/* XPM */
static char * alchimist_xpm[] = {
"22 22 2 1",
" 	c #FFFFFF",
".	c #393939",
"          ..          ",
"          ..          ",
"         .  .         ",
"        .    .        ",
"         .  .         ",
"    ...  .  .  ...    ",
"   .   . .  . .   .   ",
"  . ... .    . ... .  ",
" . .   .      .   . . ",
" .      .    .      . ",
" .       ....       . ",
" . .              . . ",
" . ..            .. . ",
" . ...          ... . ",
"  . ..          .. .  ",
"   . . .  ..  . . .   ",
"   .  ..........  .   ",
"   . . .  ..  . . .   ",
"   .              .   ",
"   .              .   ",
"    ..............    ",
"    ..............    "};
