/* XPM */
static char * collectible_xpm[] = {
"32 32 8 1",
" 	c #3D253B",
".	c #25131A",
"+	c #BF704D",
"@	c #CAE6F5",
"#	c #ADC1CF",
"$	c #CF686D",
"%	c #BC4C51",
"&	c #362030",
"                                ",
"                                ",
"              ....              ",
"              ....              ",
"              ....              ",
"            ..++++..            ",
"            ..++++..            ",
"          ..@@@@####..          ",
"          ..@@@@####..          ",
"          ..@@@@####..          ",
"          ....####....          ",
"          ....####....          ",
"          ..@@$$$$@@..          ",
"          ..@@$$$$@@..          ",
"          ..@@$$$$@@..          ",
"        ..@@$$$$$$%%@@..        ",
"        ..@@$$$$$$%%@@..        ",
"      ..@@$$$$%%%%%%%%@@..      ",
"      ..@@$$$$%%%%%%%%@@..      ",
"      ..@@$$$$%%%%%%%%@@..      ",
"      ..@@$$%%%%%%%%%%##..      ",
"      ..@@$$%%%%%%%%%%##..      ",
"      ..@@@@%%%%%%%%####..      ",
"      ..@@@@%%%%%%%%####..      ",
"      ..@@@@%%%%%%%%####..      ",
"&&&&&&&&..@@##########..  &&&&&&",
"&&&&&&&&..@@##########..  &&&&&&",
"&&        ............    &&    ",
"&&        ............    &&    ",
"&&        ............    &&    ",
"&&              &&        &&    ",
"&&              &&        &&    "};
