/* XPM */
static char * collectible_xpm[] = {
"20 20 9 1",
" 	c #222222",
".	c #483B3A",
"+	c #775C55",
"@	c #8F4029",
"#	c #C56025",
"$	c #FDF7ED",
"%	c #B6CBCF",
"&	c #DA4E38",
"*	c #EE8E2E",
"    .     .... .    ",
" ..................+",
"...................+",
"...................+",
"......        .....+",
" ..... @@#### .....+",
"...... $%%%%$ .....+",
" ...... $%%$ .......",
" ...... $&&$ .......",
" ..... $&$&&$ .....+",
" .... $&$&&&&* .....",
"..... $*&$&*&* ....+",
"..... $&&**&&* ....+",
"...... $***** .....+",
" ......      .......",
" ...................",
" ..................+",
" ..................+",
" ..................+",
"++++..+..+++++.+++++"};
