/* XPM */
static char * player_left_xpm[] = {
"20 20 10 1",
" 	c #222222",
".	c #483B3A",
"+	c #1F1833",
"@	c #775C55",
"#	c #5956BD",
"$	c #5698CC",
"%	c #FDF7ED",
"&	c #B58057",
"*	c #8A503E",
"=	c #D3BFA9",
"    .     .... .    ",
" ............++....@",
"............+#+....@",
"........++++##+....@",
"......++$####+.....@",
" ....+$$$$$###+....@",
"....+###$$$$#+.....@",
" ..+$$$$$$$###+.....",
" .++++++++++++++....",
" ..+%%&&&%%*%=+....@",
" ...++&&&++*%=+.....",
"....++&&&++*%=+....@",
"...+%*&&&**%%=+....@",
"...+%%%%%%%%%=+....@",
" ..+%%%%%%%=#+......",
" ...+%%%%%=$$+......",
" ...+%%%%=$$$+.....@",
" ...+%%%%$$$$+.....@",
" ...+=%%%#####+....@",
"@@@@++%%=++++++@@@@@"};
