/* XPM */
static char * player_right_xpm[] = {
"20 20 10 1",
" 	c #222222",
".	c #483B3A",
"+	c #1F1833",
"@	c #775C55",
"#	c #5956BD",
"$	c #5698CC",
"%	c #D3BFA9",
"&	c #FDF7ED",
"*	c #8A503E",
"=	c #B58057",
"    .     .... .    ",
" ....++............@",
".....+#+...........@",
".....+##++++.......@",
"......+####$++.....@",
" ....+###$$$$$+....@",
"......+#$$$$###+...@",
" ....+###$$$$$$$+...",
" ...++++++++++++++..",
" ....+%&*&&===&&+..@",
" ....+%&*++===++....",
".....+%&*++===++...@",
".....+%&&**===*&+..@",
".....+%&&&&&&&&&+..@",
" .....+#%&&&&&&&+...",
" .....+$$%&&&&&+....",
" .....+$$$%&&&&+...@",
" .....+$$$$&&&&+...@",
" ....+#####&&&%+...@",
"@@@@.++++++%&&++@@@@"};
