/* XPM */
static char * skull_xpm[] = {
"112 64 27 1",
" 	c None",
".	c #62ABD4",
"+	c #25131A",
"@	c #ADC1CF",
"#	c #90919E",
"$	c #C48C64",
"%	c #E1A171",
"&	c #373737",
"*	c #895A45",
"=	c #BF704D",
"-	c #606060",
";	c #CAE6F5",
">	c #BC4C51",
",	c #121212",
"'	c #44504F",
")	c #606E6D",
"!	c #8C7254",
"~	c #B19D83",
"{	c #CDD5D0",
"]	c #313B35",
"^	c #000000",
"/	c #593756",
"(	c #577EA1",
"_	c #9A8571",
":	c #64594F",
"<	c #A89780",
"[	c #E6A353",
"..  ++++++    ....   +++++    ....    +++++   ....   ++++++   ....  ++++++    ....  ++++++    ....    ++++++  ..",
".  +@#####+    ..   +$%$%%+    ..    +$%$%%+   ..   +&&&&&&+   ..  +&&&&&&+    ..  +@#####+    ..    +@#####+  .",
"  +@#++++++        +$%$%%%%+        +$%$%%%%+     +++**==#=+++   +++**==#=+++     +@#++++++         +@#++++++   ",
"  +##+@+@+@+ ++   +-----%--+ ++    +-----%--+    +&&&&&&&&&&&&+ +&&&&&&&&&&&&+    +##+@+@+@+        +##+@+@+@+  ",
"  +#@+@+@+@+ +@+  +---$;%$;+ +@+   +---$;%$;+     ++---$;%$;++   ++---$;%$;++     +#@+@+@+@+        +#@+@+@+@+  ",
"  +#@@@@@@@+ +@+  +--$$$%$$+ +@+   +--$$$%$$+      +--$$$%$$+     +--$$$%$$+      +#@@@@@@@+        +#@@@@@@@+  ",
"  ++###++#+  +=    ++$%%%%%+ +=     ++$%%%%%+       ++$%%%%%+      ++$%%%%%+  ++  ++###++#+   ++    ++###++#+   ",
" ++&+####+++ *+    +=+$%%%+  *+     +=+$%%%+        +=+$%%%+       +=+$%%%+  +#+ ++&+####+++ +#+   ++&+####+++  ",
"+#@+&&+@++@++++   +++==+@++++++    +++==+@+++      +++==+@+++     +++==+@++++#@++#@+&&+@++@++#@+  +#@+&&+@++@+  ",
"+#@+&+##@&@+*=+  +&+&&+##@&+*=+   +&+&&+##@&+     +&+&&+##@&+    +&+&&+##@&+#@+ +#@+&+##@&@+#@+   +#@+&+##@&@++ ",
"+*++&&+@+&+++=+  +*+&&&+@++*+=+   +*+&&&+@++*+    +*+&&&+@++*+   +*+&&&+@++*++  +*++&&+@+&+*++    +*++&&+@+&+*+ ",
"+++**=+@+=+ +++  +++**=+@++++++   +++**=+@++++    +++**=+@++++   +++**=+@++++   +++**=+@+= ++     +++**=+@+=+++ ",
"  +&&&++&&+ +*+    +&&&+&&+ +*+     +&&&+&&+        +&&&+&&+       +&&&+&&+       +&&&++&&+         +&&&++&&+   ",
" +&&&&+=+&&+=+    +&&&+=+&&+=+     +&&&+=+&&+      +&&&+=+&+      +&&&+=+&+      +&&&&+=+&&+       +&&&&+=+&&+  ",
".+&&&&+*+&&+*+ .. +&&&+*+&&+*+ ..  +&&&+*+&&+  ..  +&&&+*+&&+  .. +&&&+*+&&+   ..+&&&&+*+&&+   ..  +&&&&+*+&&+ .",
"..            ....            ....            ....            ....            ....            ....            ..",
">>            >>>>            >>>>    ++++++  >>>>    +++++   >>>>   +++++    >>>>   +++++    >>>> +++++      >>",
">              >>    +         >>    +,,,,,,+  >>   +,'),)'+   >>   +!~~~!+    >>   +!~~~!+    >> +!~~~!+      >",
"     +              +.+++           +,,,,,',+      +,',)))))+      +!~~~~~!+       +!~~~~~!+     +!~~~~~!++++   ",
"    +.++            +.{..++        +,,']])]]^+     ,,,)]])]]+      +~//+~/++       +~//+~/++  +  +~//+~/++###+  ",
"    +...+         +  +.{{..+       +,')]{)]{+      ,,,)]{)]{+      +~+++~+++       +~+++~+++ +@+ +~+++~++++@@#+ ",
"     +...+       +.++.{{{{.+      +>,')'')''+      ++))'')''+       +!~~~~~+        +!~~~~~+ +@+  +!~~~~~++*+@#+",
"    + +...+      +{...+++++.+    +,,>+')))))+       +'))))))+     ++++!~+~+   ++  ++++!~+~+  +=   ++!~+~+ +=++@+",
"   +.++.{..+     ++{{+(...(++     ++++++{++{+        +++{++{+    +##@++++++  +#+ +##@++++++ +*+  +!++++++ +=+ ++",
"   +..+.{{.+      +{+(.....(+      +_:______:+      +:______+    +#@@*=+<+!++#@+ +#@@*=+<+!++=+  +~*=+!+!++**+  ",
"   ++.{.{{.+       ++(//+./++      +:___+[+_:+     +:___+[+_:+   +++++*=++~+#@+  +++++*=+++~~+  +~++*=+++~~++   ",
"    +..{{{{+        +(+++.+++      +++++++++++     +++++++++++    +!+!+@=++~++    +!+!+@=+ +++  +!+!+@=+ +++    ",
"     +.{{{+          +(....(+       +::::+::+       +::::+::+     +++!~+*+=++     +++!~+*+ +=+  +++!~+*+ +*+    ",
"      ++++            +(.+(+        +_:__+_:+       +_:__+_:+       +!++++          +!++++ +*+    +!++++ +=+    ",
"                       ++ +        +_::__+__:+     +_::__+__:+     +~+ +~+         +~+ +~++=+    +~+ +~+ +*+    ",
">              >>              >> +_::__+++_:+ >> +_::__+++_:+ >>  +!+ +!+     >>  +!+ +!++*+  >>+!+ +!+ +*+   >",
">>            >>>>            >>>>            >>>>            >>>>            >>>>            >>>>            >>",
"    ++++++           +++++            +++++          ++++++         ++++++          ++++++            ++++++    ",
"   +@#####+         +$%$%%+          +$%$%%+        +&&&&&&+       +&&&&&&+        +@#####+          +@#####+   ",
"  +@#++++++        +$%$%%%%+        +$%$%%%%+     +++**==#=+++   +++**==#=+++     +@#++++++         +@#++++++   ",
"  +##+@+@+@+ ++   +-----%--+ ++    +-----%--+    +&&&&&&&&&&&&+ +&&&&&&&&&&&&+    +##+@+@+@+        +##+@+@+@+  ",
"  +#@+@+@+@+ +@+  +---$;%$;+ +@+   +---$;%$;+     ++---$;%$;++   ++---$;%$;++     +#@+@+@+@+        +#@+@+@+@+  ",
"  +#@@@@@@@+ +@+  +--$$$%$$+ +@+   +--$$$%$$+      +--$$$%$$+     +--$$$%$$+      +#@@@@@@@+        +#@@@@@@@+  ",
"  ++###++#+  +=    ++$%%%%%+ +=     ++$%%%%%+       ++$%%%%%+      ++$%%%%%+  ++  ++###++#+   ++    ++###++#+   ",
" ++&+####+++ *+    +=+$%%%+  *+     +=+$%%%+        +=+$%%%+       +=+$%%%+  +#+ ++&+####+++ +#+   ++&+####+++  ",
"+#@+&&+@++@++++   +++==+@++++++    +++==+@+++      +++==+@+++     +++==+@++++#@++#@+&&+@++@++#@+  +#@+&&+@++@+  ",
"+#@+&+##@&@+*=+  +&+&&+##@&+*=+   +&+&&+##@&+     +&+&&+##@&+    +&+&&+##@&+#@+ +#@+&+##@&@+#@+   +#@+&+##@&@++ ",
"+*++&&+@+&+++=+  +*+&&&+@++*+=+   +*+&&&+@++*+    +*+&&&+@++*+   +*+&&&+@++*++  +*++&&+@+&+*++    +*++&&+@+&+*+ ",
"+++**=+@+=+ +++  +++**=+@++++++   +++**=+@++++    +++**=+@++++   +++**=+@++++   +++**=+@+= ++     +++**=+@+=+++ ",
"  +&&&++&&+ +*+    +&&&+&&+ +*+     +&&&+&&+        +&&&+&&+       +&&&+&&+       +&&&++&&+         +&&&++&&+   ",
" +&&&&+=+&&+=+    +&&&+=+&&+=+     +&&&+=+&&+      +&&&+=+&+      +&&&+=+&+      +&&&&+=+&&+       +&&&&+=+&&+  ",
" +&&&&+*+&&+*+    +&&&+*+&&+*+     +&&&+*+&&+      +&&&+*+&&+     +&&&+*+&&+     +&&&&+*+&&+       +&&&&+*+&&+  ",
"                                                                                                                ",
"                                      ++++++          +++++          +++++           +++++         +++++        ",
"                     +               +,,,,,,+       +,'),)'+        +!~~~!+         +!~~~!+       +!~~~!+       ",
"     +              +.+++           +,,,,,',+      +,',)))))+      +!~~~~~!+       +!~~~~~!+     +!~~~~~!++++   ",
"    +.++            +.{..++        +,,']])]]^+     ,,,)]])]]+      +~//+~/++       +~//+~/++  +  +~//+~/++###+  ",
"    +...+         +  +.{{..+       +,')]{)]{+      ,,,)]{)]{+      +~+++~+++       +~+++~+++ +@+ +~+++~++++@@#+ ",
"     +...+       +.++.{{{{.+      +>,')'')''+      ++))'')''+       +!~~~~~+        +!~~~~~+ +@+  +!~~~~~++*+@#+",
"    + +...+      +{...+++++.+    +,,>+')))))+       +'))))))+     ++++!~+~+   ++  ++++!~+~+  +=   ++!~+~+ +=++@+",
"   +.++.{..+     ++{{+(...(++     ++++++{++{+        +++{++{+    +##@++++++  +#+ +##@++++++ +*+  +!++++++ +=+ ++",
"   +..+.{{.+      +{+(.....(+      +_:______:+      +:______+    +#@@*=+<+!++#@+ +#@@*=+<+!++=+  +~*=+!+!++**+  ",
"   ++.{.{{.+       ++(//+./++      +:___+[+_:+     +:___+[+_:+   +++++*=++~+#@+  +++++*=+++~~+  +~++*=+++~~++   ",
"    +..{{{{+        +(+++.+++      +++++++++++     +++++++++++    +!+!+@=++~++    +!+!+@=+ +++  +!+!+@=+ +++    ",
"     +.{{{+          +(....(+       +::::+::+       +::::+::+     +++!~+*+=++     +++!~+*+ +=+  +++!~+*+ +*+    ",
"      ++++            +(.+(+        +_:__+_:+       +_:__+_:+       +!++++          +!++++ +*+    +!++++ +=+    ",
"                       ++ +        +_::__+__:+     +_::__+__:+     +~+ +~+         +~+ +~++=+    +~+ +~+ +*+    ",
"                                  +_::__+++_:+    +_::__+++_:+     +!+ +!+         +!+ +!++*+    +!+ +!+ +*+    ",
"                                                                                                                "};
