/* XPM */
static char * skull_xpm[] = {
"32 32 7 1",
" 	c #3D253B",
".	c #25131A",
"+	c #362030",
"@	c #62ABD4",
"#	c #A7D1E6",
"$	c #577EA1",
"%	c #56587B",
"  ..............................",
"  ++++++++++++++++++++++++++++++",
"  ++++++++++++++++++++++++++++++",
"+                  ..          +",
"+            ......@@..        +",
"+            ......@@..       ++",
"+        ....@@@@@@@@..       ++",
"+        ....@@@@@@@@..       ++",
"+      ..@@@@####@@..    ..   ++",
"+      ..@@@@####@@..    ..   ++",
"+      ..@@####@@##@@....@@.. ++",
"+      ..@@####@@##@@....@@.. ++",
"+    ..@@..........@@@@@@##.. ++",
"+    ..@@..........@@@@@@##.. ++",
"+    ....$$@@@@@@$$..####.... ++",
"     ....$$@@@@@@$$..####.... ++",
"     ..$$@@@@@@@@@@$$..##..   ++",
"+    ..$$@@@@@@@@@@$$..##..   ++",
"+    ....%%@@..%%%%$$....     ++",
"     ....%%@@..%%%%$$....     ++",
"     ......@@......$$..       ++",
"     ......@@......$$..       ++",
"     ..$$@@@@@@@@$$..         ++",
"     ..$$@@@@@@@@$$..         ++",
"       ..$$..@@$$..           ++",
"       ..$$..@@$$..           ++",
"         ..  ....             ++",
"         ..  ....             ++",
"                              ++",
"                              ++",
"                              ++",
"  ++++++++++++++++++          ++"};
