/* XPM */
static char * tileset_xpm[] = {
"32 32 2 1",
" 	c #362030",
".	c #3D253B",
"                       ..  .....",
"                       ..  .....",
" ..............  ...............",
" ..............  ...............",
" ..............  ...............",
" ..............  ...............",
" ..............  ...............",
" ..............  ...............",
" ...............................",
" ...............................",
" ...............................",
" ...............................",
"............................... ",
"............................... ",
"................................",
"................................",
"............................... ",
"............................... ",
"............................... ",
"............................... ",
"............................... ",
"............................... ",
".  ............................ ",
".  ............................ ",
".  ............................ ",
".  ............................ ",
".  ............................ ",
".  ............................ ",
"................................",
"................................",
"................................",
"................................"};
