/* XPM */
static char * tileset_xpm[] = {
"20 20 3 1",
" 	c #222222",
".	c #483B3A",
"+	c #775C55",
"    .     .... .    ",
" ..................+",
"...................+",
"...................+",
"...................+",
" ..................+",
"...................+",
" ...................",
" ...................",
" ..................+",
" ...................",
"...................+",
"...................+",
"...................+",
" ...................",
" ...................",
" ..................+",
" ..................+",
" ..................+",
"++++..+..+++++.+++++"};
