/* XPM */
static char * skull_xpm[] = {
"20 20 10 1",
" 	c #222222",
".	c #483B3A",
"+	c #D3BFA9",
"@	c #775C55",
"#	c #AA8D7A",
"$	c #1C1117",
"%	c #140C11",
"&	c #1D1218",
"*	c #21141B",
"=	c #23151D",
"    .          .    ",
" .... ++++++++ ....@",
".... +########+ ...@",
"... @##########@ ..@",
"...  @########@  ..@",
" .. @ @@@@@@@@ @ ..@",
"... .@        @. ..@",
" ..$..@@@@@@@@..$...",
" ...%..........&....",
" ...*..=****=..*...@",
" ...*.. .... ..*....",
"....*.. .... ..*...@",
"...==.. .... ..=*..@",
"..$= *@ .... @* *..@",
" . =. *.@@@@.* .= ..",
" .. =.@=****=@.* ...",
" . . ==@@@@@@== ...@",
" ....  =****=  . ..@",
" ... ..      ......@",
"@@@@..@. @@@@ .@@@@@"};
